<svg width="115.2" height="115.2" viewBox="0 0 115.2 115.2" class="css-1j8o68f"><defs id="SvgjsDefs1971"></defs><g id="SvgjsG1972" featurekey="symbolFeature-0" transform="matrix(1.2799991319450332,0,0,1.2799991319450332,-6.399995659725166,-6.399917534778148)" fill="#66c6ba"><g xmlns="http://www.w3.org/2000/svg" transform="translate(0,-952.36218)"><path d="m 61,957.36215 c -5.49916,0 -10,4.50084 -10,10 0,3.4764 1.78745,6.55016 4.5,8.34375 l -4.90625,16.40625 c -1.45347,-0.47171 -2.98672,-0.75 -4.59375,-0.75 -3.47156,0 -6.67183,1.19425 -9.21875,3.1875 l -15.4375,-13 C 22.38633,980.08094 23,978.28843 23,976.36215 c 0,-4.94687 -4.05313,-9 -9,-9 -4.94688,0 -9,4.05313 -9,9 0,4.94688 4.05312,9 9,9 1.56112,0 3.02869,-0.417 4.3125,-1.125 l 15.65625,13.1875 C 32.10537,999.92421 31,1003.0174 31,1006.3622 c 0,3.407 1.16695,6.5391 3.09375,9.0625 l -10.15625,10.1875 c -1.9647,-1.4048 -4.35016,-2.25 -6.9375,-2.25 -6.60373,0 -12,5.3963 -12,12 0,6.6037 5.39627,12 12,12 6.60373,0 12,-5.3963 12,-12 0,-2.5873 -0.8452,-4.9728 -2.25,-6.9375 l 10.15625,-10.1563 c 2.5267,1.9359 5.67782,3.0938 9.09375,3.0938 5.55957,0 10.40929,-3.0792 13,-7.5938 l 14.15625,4.7188 c -0.10515,0.608 -0.15625,1.2381 -0.15625,1.875 0,6.0514 4.94856,11 11,11 6.05144,0 11,-4.9486 11,-11 0,-6.0515 -4.94856,-11 -11,-11 -4.00406,0 -7.51317,2.1872 -9.4375,5.4062 L 60.5,1010.0809 c 0.30669,-1.192 0.5,-2.4334 0.5,-3.7187 0,-1.4575 -0.23407,-2.8535 -0.625,-4.1876 l 14.875,-9.9062 c 1.65334,1.88599 4.06246,3.09375 6.75,3.09375 4.94688,0 9,-4.05312 9,-9 0,-4.94687 -4.05312,-9 -9,-9 -4.94687,0 -9,4.05313 -9,9 0,0.8119 0.10811,1.59397 0.3125,2.34375 l -14.59375,9.75 c -1.15135,-1.84108 -2.68877,-3.4309 -4.5,-4.625 l 5,-16.65625 c 0.58066,0.10599 1.17124,0.1875 1.78125,0.1875 5.49916,0 10,-4.50084 10,-10 0,-5.49916 -4.50084,-10 -10,-10 z" style="text-indent:0;text-transform:none;direction:ltr;block-progression:tb;baseline-shift:baseline;color:;enable-background:accumulate;" fill="#66c6ba" fill-opacity="1" stroke="none" marker="none" visibility="visible" display="inline" overflow="visible"></path></g></g><g id="bad-node" featureKey="bad-node"><circle cx="97.95" cy="37" r="12.5" fill="#ff6d6d"/></g></svg>